# AST/ASF file generated using VICON BodyLanguage
# -----------------------------------------------
:version 1.10
:name VICON
:units
  mass 1.0
  length 0.45
  angle deg
:documentation
   .ast/.asf automatically generated from VICON data using
   VICON BodyBuilder and BodyLanguage model FoxedUp or BRILLIANT.MOD
:root
   order TX TY TZ RX RY RZ
   axis XYZ
   position 0 0 0  
   orientation 0 0 0 
:bonedata
  begin
     id 1 
     name lhipjoint
     direction 0.602128 -0.715006 0.355257 
     length 2.21237 
     axis 0 0 0  XYZ
  end
  begin
     id 2 
     name lfemur
     direction 0.34202 -0.939693 0  
     length 6.71649  
     axis 0 0 20  XYZ
    dof rx ry rz
    limits (-160.0 20.0)
           (-70.0 70.0)
           (-60.0 70.0)
  end
  begin
     id 3 
     name ltibia
     direction 0.34202 -0.939693 0   
     length 6.97123   
     axis 0 0 20   XYZ
    dof rx
    limits (-10.0 170.0)
  end
  begin
     id 4 
     name lfoot
     direction 0.0655697 -0.180151 0.981451   
     length 1.80924   
     axis -90 7.62852e-016 20   XYZ
    dof rx rz
    limits (-45.0 90.0)
           (-70.0 20.0)
  end
  begin
     id 5 
     name ltoes
     direction 1.53545e-011 -4.21827e-011 1   
     length 0.916331   
     axis -90 7.62852e-016 20   XYZ
    dof rx
    limits (-90.0 20.0)
  end
  begin
     id 6 
     name rhipjoint
     direction -0.625414 -0.698792 0.347201   
     length 2.2637  
     axis 0 0 0  XYZ 
  end
  begin
     id 7 
     name rfemur
     direction -0.34202 -0.939693 0   
     length 7.07595   
     axis 0 0 -20   XYZ
    dof rx ry rz
    limits (-160.0 20.0)
           (-70.0 70.0)
           (-70.0 60.0)
  end
  begin
     id 8 
     name rtibia
     direction -0.34202 -0.939693 0   
     length 7.22924   
     axis 0 0 -20   XYZ
    dof rx
    limits (-10.0 170.0)
 end
 begin
     id 9 
     name rfoot
     direction -0.0766747 -0.210662 0.974547   
     length 1.98482  
     axis -90 -7.62852e-016 -20   XYZ
    dof rx rz
    limits (-45.0 90.0)
           (-20.0 70.0)
  end
  begin
     id 10 
     name rtoes
     direction -1.53532e-011 -4.21867e-011 1   
     length 0.999842   
     axis -90 -7.62852e-016 -20   XYZ
    dof rx
    limits (-90.0 20.0)
  end
  begin
     id 11 
     name lowerback
     direction -0.0224668 0.997354 -0.0691422   
     length 2.09945   
     axis 0 0 0   XYZ
    dof rx ry rz
    limits (-20.0 45.0)
           (-30.0 30.0)
           (-30.0 30.0)
  end
  begin
     id 12 
     name upperback
     direction 0.0134698 0.998451 -0.0539888   
     length 2.09758   
     axis 0 0 0   XYZ
    dof rx ry rz
    limits (-20.0 45.0)
           (-30.0 30.0)
           (-30.0 30.0)
  end
  begin
     id 13 
     name thorax
     direction 0.0241905 0.99948 -0.0213333   
     length 2.10428   
     axis 0 0 0   XYZ
    dof rx ry rz
    limits (-20.0 45.0)
           (-30.0 30.0)
           (-30.0 30.0)
  end
  begin
     id 14 
     name lowerneck
     direction -0.00866847 0.995978 0.0891737   
     length 1.3959   
     axis 0 0 0   XYZ
    dof rx ry rz
    limits (-20.0 45.0)
           (-30.0 30.0)
           (-30.0 30.0)
  end
  begin
     id 15 
     name upperneck
     direction 0.0680679 0.992203 0.104404   
     length 1.39452   
     axis 0 0 0   XYZ
    dof rx ry rz
    limits (-20.0 45.0)
           (-30.0 30.0)
           (-30.0 30.0)
  end
  begin
     id 16
     name head
     direction 0.0242216 0.999358 0.0264054  
     length 1.40433  
     axis 0 0 0   XYZ
    dof rx ry rz
    limits (-20.0 45.0)
           (-30.0 30.0)
           (-30.0 30.0)
  end
  begin
     id 17 
     name lclavicle
     direction 0.929368 0.362991 -0.0671771  
     length 3.04887  
     axis 0 0 0   XYZ
    dof ry rz
    limits (-20.0 10.0)
           (0.0 20.0)
  end
  begin
     id 18 
     name lhumerus
     direction 1 -4.48967e-011 -7.13741e-028   
     length 4.77195   
     axis -180 -30 -90   XYZ
    dof rx ry rz
    limits (-60.0 90.0)
           (-90.0 90.0)
           (-90.0 90.0)
  end
  begin
     id 19
     name lradius
     direction 1 -4.48977e-011 3.60404e-027   
     length 2.98444   
     axis -180 -30 -90   XYZ
    dof rx
    limits (-10.0 170.0)
  end
  begin
     id 20
     name lwrist
     direction 1 -4.48997e-011 7.54877e-027   
     length 1.49222   
     axis -7.18178e-015 90 90   XYZ
    dof ry
    limits (-180.0 0.0)
 end
  begin
     id 21 
     name lhand
     direction 1 -4.489e-011 1.51105e-026   
     length 0.992285   
     axis -9.63605e-015 90 90   XYZ
    dof rx rz
    limits (-90.0 90.0)
           (-45.0 45.0)
  end
  begin
     id 22 
     name lfingers
     direction 1 -4.48998e-011 3.01948e-026   
     length 0.800006   
     axis -1.92718e-014 90 90   XYZ
    dof rx
    limits (0.0 90.0)
  end
  begin
     id 23
     name lthumb
     direction 0.707107 -6.34881e-011 0.707107   
     length 1.14865   
     axis -90 45 -3.53137e-014   XYZ
    dof rx rz
    limits (-45.0 45.0)
           (-45.0 45.0)
  end
  begin
     id 24 
     name rclavicle
     direction -0.945672 0.324529 0.0196374   
     length 3.4236  
     axis 0 0 0   XYZ 
    dof ry rz
    limits (-10.0 20.0)
           (-20.0 0.0)
  end
  begin
     id 25 
     name rhumerus
     direction -1 -4.4896e-011 1.02757e-029  
     length 4.62052   
     axis -180 30 90   XYZ
    dof rx ry rz
    limits (-90.0 60.0)
           (-90.0 90.0)
           (-90.0 90.0)
  end
  begin
     id 26 
     name rradius
     direction -1 -4.48982e-011 3.85962e-027   
     length 2.95332   
     axis -180 30 90   XYZ
    dof rx
    limits (-10.0 170.0)
  end
  begin
     id 27 
     name rwrist
     direction -1 -4.48961e-011 7.55118e-027   
     length 1.47666   
     axis -7.18178e-015 -90 -90   XYZ
    dof ry
    limits (-180.0 0.0)
  end
  begin
     id 28
     name rhand
     direction -1 -4.48984e-011 1.50994e-026   
     length 0.990956   
     axis -9.63605e-015 -90 -90   XYZ
    dof rx rz
    limits (-90.0 90.0)
           (-45.0 45.0)
  end
  begin
     id 29
     name rfingers
     direction -1 -4.4892e-011 3.02158e-026   
     length 0.798934   
     axis -1.92718e-014 -90 -90   XYZ
    dof rx
    limits (0.0 90.0)
  end
  begin
     id 30
     name rthumb
     direction -0.707107 -6.34916e-011 0.707107   
     length 1.14711   
     axis -90 -45 3.53137e-014   XYZ
    dof rx rz
    limits (-45.0 45.0)
           (-45.0 45.0)
  end
:hierarchy
  begin
    root lhipjoint rhipjoint lowerback
    lhipjoint lfemur
    lfemur ltibia
    ltibia lfoot
    lfoot ltoes
    rhipjoint rfemur
    rfemur rtibia
    rtibia rfoot
    rfoot rtoes
    lowerback upperback
    upperback thorax
    thorax lowerneck lclavicle rclavicle
    lowerneck upperneck
    upperneck head
    lclavicle lhumerus
    lhumerus lradius
    lradius lwrist
    lwrist lhand lthumb
    lhand lfingers
    rclavicle rhumerus
    rhumerus rradius
    rradius rwrist
    rwrist rhand rthumb
    rhand rfingers
  end

#!OML:ASF H:\ManfredObstacles\Project 1\Capture day 1\Session 1\Male.ASF
:FULLY-SPECIFIED
:DEGREES
466
root -2.58584 8.4823 4.2363 -107.63 -5.96885 -190.712
lowerback 17.8984 -1.04151 -1.20036
upperback 5.09096 -1.97422 2.9889
thorax -4.40769 -1.18688 4.29797
lowerneck 3.45762 -2.32887 -8.0405
upperneck -30.2908 -3.61417 10.7097
head -9.71728 -3.26927 5.77686
rclavicle 5.40694e-014 -1.51076e-014
rhumerus 27.5881 0.152784 -72.7818
rradius 75.9885
rwrist 32.6786
rhand -51.3546 8.50745
rfingers 7.12502
rthumb -23.8887 -20.0268
lclavicle 5.40694e-014 -1.51076e-014
lhumerus 32.9229 -19.3675 79.989
lradius 45.2807
lwrist -35.4192
lhand -63.3902 -18.0429
lfingers 7.12502
lthumb -35.373 8.42522
rfemur -78.9312 -9.76886 22.6439
rtibia 122.802
rfoot 154.14 -162.673
rtoes 13.0132
lfemur -35.144 -1.29103 -18.1279
ltibia 61.852
lfoot 19.8388 -4.48495
ltoes -64.3622
467
root -2.56845 8.51999 4.10202 -107.619 -5.74475 -191.052
lowerback 18.0364 -0.85842 -1.27049
upperback 5.08928 -1.75837 2.64098
thorax -4.51018 -1.07612 3.9258
lowerneck 3.72745 -2.54483 -7.19177
upperneck -30.653 -3.83746 10.5898
head -9.90176 -3.46352 5.63697
rclavicle -1.03368e-014 2.30466e-014
rhumerus 33.8667 -2.59649 -71.4204
rradius 72.5357
rwrist 32.0485
rhand -47.7693 5.1864
rfingers 7.12502
rthumb -20.4467 -23.757
lclavicle -1.03368e-014 2.30466e-014
lhumerus 32.7329 -20.4 79.8869
lradius 44.964
lwrist -35.588
lhand -63.7176 -18.8654
lfingers 7.12502
lthumb -35.6834 7.52827
rfemur -77.6597 -9.65819 22.3911
rtibia 121.527
rfoot 153.703 -163.013
rtoes 11.191
lfemur -36.3284 0.0170297 -18.4546
ltibia 64.4487
lfoot 19.5302 -5.50372
ltoes -64.9562
468
root -2.55291 8.55338 3.96547 -107.372 -5.5093 -191.583
lowerback 17.8697 -0.724834 -1.29768
upperback 5.00771 -1.58352 2.2713
thorax -4.53311 -0.980019 3.50438
lowerneck 4.20312 -2.80801 -6.23847
upperneck -31.0971 -4.1466 10.3082
head -10.1628 -3.68831 5.44177
rclavicle 1.90833e-014 -1.48592e-014
rhumerus 39.6926 -5.34078 -70.2447
rradius 67.8875
rwrist 31.4102
rhand -44.4413 3.1466
rfingers 7.12502
rthumb -17.246 -26.1081
lclavicle 1.90833e-014 -1.48592e-014
lhumerus 32.4201 -21.608 79.6829
lradius 44.8901
lwrist -35.6145
lhand -64.0588 -19.6428
lfingers 7.12502
lthumb -36.0067 6.67211
rfemur -76.7554 -9.71791 22.0903
rtibia 120.308
rfoot 153.511 -163.353
rtoes 11.0182
lfemur -38.0495 1.05913 -18.8345
ltibia 67.4678
lfoot 19.5605 -6.14859
ltoes -65.4973
469
root -2.52801 8.577 3.81899 -107.409 -5.4889 -191.895
lowerback 17.8909 -0.633406 -1.10351
upperback 5.03408 -1.44755 1.86282
thorax -4.54184 -0.912023 2.9293
lowerneck 4.54901 -3.03135 -5.21989
upperneck -31.3223 -4.35763 10.0543
head -10.3332 -3.8644 5.21656
rclavicle 1.59028e-014 1.2101e-014
rhumerus 45.0857 -7.6664 -69.6044
rradius 62.2366
rwrist 31.0686
rhand -41.5203 1.32302
rfingers 7.12502
rthumb -14.433 -28.1551
lclavicle 1.59028e-014 1.2101e-014
lhumerus 32.009 -22.6627 79.2727
lradius 44.9255
lwrist -35.6999
lhand -64.3224 -20.6309
lfingers 7.12502
lthumb -36.2563 5.6222
rfemur -75.3997 -9.44651 22.0789
rtibia 119.034
rfoot 153.344 -163.948
rtoes 11.2178
lfemur -39.523 2.21372 -18.7871
ltibia 70.7716
lfoot 19.7715 -6.3997
ltoes -65.5764
470
root -2.50356 8.59992 3.67653 -107.462 -5.41755 -192.256
lowerback 17.986 -0.654242 -0.903155
upperback 5.11333 -1.47115 1.38676
thorax -4.52478 -0.925763 2.31502
lowerneck 4.67797 -3.24213 -4.36406
upperneck -31.4947 -4.54269 9.94468
head -10.4379 -4.03536 5.06024
rclavicle 2.8625e-014 -1.53313e-014
rhumerus 50.071 -9.39451 -69.4631
rradius 56.2562
rwrist 30.6419
rhand -38.9061 0.244379
rfingers 7.12502
rthumb -11.9131 -29.3967
lclavicle 2.8625e-014 -1.53313e-014
lhumerus 31.6443 -23.4502 78.7633
lradius 44.9107
lwrist -35.8108
lhand -64.6211 -22.0526
lfingers 7.12502
lthumb -36.5391 4.12959
rfemur -74.1448 -9.35195 22.01
rtibia 117.766
rfoot 153.348 -164.546
rtoes 11.3756
lfemur -41.228 3.19521 -18.7874
ltibia 74.2457
lfoot 20.2004 -6.50234
ltoes -65.5319
471
root -2.46387 8.62057 3.52496 -107.681 -5.42308 -192.335
lowerback 18.2652 -0.557465 -0.908964
upperback 5.23267 -1.38177 1.0664
thorax -4.55757 -0.887975 1.96472
lowerneck 4.82443 -3.47082 -3.57835
upperneck -31.7441 -4.77777 9.81259
head -10.5739 -4.22804 4.9212
rclavicle -1.43125e-014 2.21148e-014
rhumerus 54.1445 -10.5973 -69.5621
rradius 51.0887
rwrist 29.9222
rhand -36.4405 -0.0921347
rfingers 7.12502
rthumb -9.53485 -29.8564
lclavicle -1.43125e-014 2.21148e-014
lhumerus 31.3079 -24.092 78.4237
lradius 44.7978
lwrist -36.0608
lhand -65.0534 -23.4273
lfingers 7.12502
lthumb -36.9482 2.65056
rfemur -72.6683 -8.79167 22.1521
rtibia 116.407
rfoot 153.332 -165.282
rtoes 12.1626
lfemur -42.9874 4.38631 -18.5116
ltibia 77.8764
lfoot 20.9909 -6.42149
ltoes -65.5518
472
root -2.42675 8.66701 3.31113 -107.725 -5.44958 -192.495
lowerback 18.3188 -0.554197 -0.829657
upperback 5.34368 -1.39583 0.701674
thorax -4.47851 -0.899686 1.53488
lowerneck 4.88645 -3.62056 -2.83796
upperneck -31.9051 -4.89591 9.71004
head -10.6695 -4.3614 4.78156
rclavicle 3.18055e-014 1.18401e-014
rhumerus 57.019 -11.2731 -69.7156
rradius 47.2369
rwrist 29.3034
rhand -36.9132 0.251062
rfingers 7.12502
rthumb -9.99086 -29.4918
lclavicle 3.18055e-014 1.18401e-014
lhumerus 31.0722 -24.6502 78.0076
lradius 44.5684
lwrist -36.3409
lhand -65.511 -24.8567
lfingers 7.12502
lthumb -37.3809 1.10829
rfemur -70.9574 -8.34122 22.2353
rtibia 114.623
rfoot 153.689 -165.49
rtoes 12.8748
lfemur -44.8086 5.22696 -18.2535
ltibia 81.2264
lfoot 21.2709 -6.03587
ltoes -65.4986
473
root -2.38788 8.68314 3.14855 -107.914 -5.27825 -192.402
lowerback 18.4749 -0.502916 -0.969105
upperback 5.4787 -1.39827 0.297763
thorax -4.42449 -0.908104 1.18789
lowerneck 4.93703 -3.65654 -2.53588
upperneck -31.9218 -4.83446 9.88932
head -10.6949 -4.38526 4.79274
rclavicle 1.59028e-015 -2.37423e-014
rhumerus 57.3444 -11.5592 -70.8263
rradius 47.2101
rwrist 30.5977
rhand -35.6447 -0.642498
rfingers 7.12502
rthumb -8.76691 -30.4404
lclavicle 1.59028e-015 -2.37423e-014
lhumerus 30.7587 -25.0283 77.4286
lradius 44.3201
lwrist -36.4673
lhand -65.742 -26.025
lfingers 7.12502
lthumb -37.5992 -0.117877
rfemur -69.6428 -7.57336 22.173
rtibia 113.265
rfoot 154.138 -166.195
rtoes 13.2917
lfemur -46.904 6.18775 -18.0513
ltibia 84.9076
lfoot 21.2887 -6.35955
ltoes -65.6515
474
root -2.34649 8.70196 2.99037 -108.009 -5.08223 -192.381
lowerback 18.5554 -0.482702 -1.22491
upperback 5.60996 -1.46062 -0.076241
thorax -4.32996 -0.94621 0.949942
lowerneck 5.00863 -3.65419 -2.47053
upperneck -31.93 -4.70821 10.2353
head -10.7114 -4.37246 4.90076
rclavicle 4.29375e-014 -5.49143e-015
rhumerus 57.3112 -11.2297 -71.5553
rradius 46.3123
rwrist 30.2362
rhand -36.5871 0.128914
rfingers 7.12502
rthumb -9.67629 -29.6288
lclavicle 4.29375e-014 -5.49143e-015
lhumerus 30.4186 -25.281 76.8551
lradius 44.0969
lwrist -36.5376
lhand -65.9503 -27.8673
lfingers 7.12502
lthumb -37.7961 -2.01291
rfemur -68.502 -6.91496 22.1015
rtibia 111.916
rfoot 154.142 -167.027
rtoes 13.1627
lfemur -49.3634 6.97893 -17.907
ltibia 88.5563
lfoot 21.2692 -7.3331
ltoes -66.2501
475
root -2.29806 8.72632 2.84014 -107.935 -4.89508 -192.672
lowerback 18.5747 -0.599378 -1.64494
upperback 5.69715 -1.72369 -0.382024
thorax -4.23963 -1.08141 0.920048
lowerneck 5.11706 -3.58688 -2.35733
upperneck -31.9877 -4.54666 10.3759
head -10.7672 -4.33107 4.92935
rclavicle -1.74931e-014 3.45388e-015
rhumerus 57.0146 -10.7406 -72.5839
rradius 45.7474
rwrist 30.6658
rhand -38.1111 0.406946
rfingers 7.12502
rthumb -11.1464 -29.277
lclavicle -1.74931e-014 3.45388e-015
lhumerus 29.9445 -25.2549 76.4395
lradius 43.8869
lwrist -36.6761
lhand -66.423 -31.0077
lfingers 7.12502
lthumb -38.2424 -5.27481
rfemur -67.5594 -6.5327 21.9668
rtibia 110.638
rfoot 154.164 -167.481
rtoes 12.7314
lfemur -52.3045 7.25546 -17.8342
ltibia 92.2199
lfoot 21.8905 -8.4664
ltoes -66.9763
476
root -2.25311 8.74592 2.68416 -107.968 -4.79122 -192.947
lowerback 18.5681 -0.777678 -1.98243
upperback 5.86313 -2.05838 -0.619992
thorax -4.04881 -1.25837 0.927894
lowerneck 5.04006 -3.50431 -2.23103
upperneck -31.9263 -4.42474 10.3326
head -10.7441 -4.28491 4.87366
rclavicle 1.27222e-014 2.13694e-015
rhumerus 56.3451 -10.2342 -73.5888
rradius 46.0241
rwrist 31.1526
rhand -39.0075 0.540306
rfingers 7.12502
rthumb -12.0108 -29.0951
lclavicle 1.27222e-014 2.13694e-015
lhumerus 29.4087 -25.0297 76.0489
lradius 43.7377
lwrist -36.7547
lhand -66.874 -34.2307
lfingers 7.12502
lthumb -38.668 -8.61643
rfemur -66.4199 -6.24828 21.8228
rtibia 109.282
rfoot 154.28 -167.873
rtoes 12.5817
lfemur -55.2149 7.25599 -17.6724
ltibia 95.7614
lfoot 22.2997 -9.49138
ltoes -67.4944
477
root -2.21074 8.77027 2.53234 -108.198 -4.73354 -192.978
lowerback 18.7929 -0.880381 -2.31494
upperback 6.0543 -2.30423 -0.784433
thorax -3.95054 -1.39527 0.997947
lowerneck 4.94706 -3.38745 -2.15099
upperneck -31.8229 -4.25375 10.3169
head -10.7026 -4.21166 4.82786
rclavicle 1.59028e-014 -1.44119e-015
rhumerus 55.5552 -9.64212 -74.1464
rradius 46.4615
rwrist 31.0872
rhand -39.3788 0.795876
rfingers 7.12502
rthumb -12.3689 -28.8182
lclavicle 1.59028e-014 -1.44119e-015
lhumerus 28.9679 -24.7138 75.6958
lradius 43.4438
lwrist -36.7781
lhand -67.1952 -37.1068
lfingers 7.12502
lthumb -38.9709 -11.5785
rfemur -65.096 -5.71968 21.773
rtibia 107.817
rfoot 154.192 -168.231
rtoes 12.2885
lfemur -58.0528 7.38322 -17.4094
ltibia 99.1651
lfoot 20.7052 -10.7511
ltoes -69.6752
478
root -2.16558 8.79464 2.38198 -108.774 -4.62957 -192.642
lowerback 19.3314 -0.816055 -2.79984
upperback 6.29793 -2.38426 -0.886697
thorax -3.95444 -1.45732 1.19443
lowerneck 5.01568 -3.20348 -2.10592
upperneck -31.7502 -3.95759 10.3866
head -10.7107 -4.08516 4.81789
rclavicle 3.33958e-014 9.69075e-015
rhumerus 54.8783 -8.83752 -74.1214
rradius 46.6194
rwrist 30.2227
rhand -40.1532 1.05471
rfingers 7.12502
rthumb -13.1155 -28.5128
lclavicle 3.33958e-014 9.69075e-015
lhumerus 28.5575 -24.267 75.4727
lradius 42.9694
lwrist -36.9131
lhand -67.4584 -39.1751
lfingers 7.12502
lthumb -39.219 -13.7182
rfemur -63.3528 -4.77453 21.8194
rtibia 106.252
rfoot 154.673 -168.618
rtoes 11.6925
lfemur -60.572 7.77034 -17.0244
ltibia 102.468
lfoot 19.6236 -12.5219
ltoes -70.482
479
root -2.12819 8.82341 2.23253 -109.664 -4.57396 -192.348
lowerback 20.1844 -0.706249 -3.15442
upperback 6.60855 -2.41591 -0.988944
thorax -4.05344 -1.50141 1.31655
lowerneck 5.03233 -3.07649 -2.03523
upperneck -31.6065 -3.71286 10.5346
head -10.6756 -3.9876 4.82788
rclavicle -2.38542e-014 -1.69961e-014
rhumerus 54.3466 -8.21055 -73.8106
rradius 46.4465
rwrist 29.7101
rhand -41.0989 0.840889
rfingers 7.12502
rthumb -14.0269 -28.6658
lclavicle -2.38542e-014 -1.69961e-014
lhumerus 28.1019 -23.8958 75.416
lradius 42.5822
lwrist -37.1418
lhand -67.6692 -41.1139
lfingers 7.12502
lthumb -39.4177 -15.7148
rfemur -61.2133 -3.97445 21.8452
rtibia 104.589
rfoot 155.573 -168.688
rtoes 14.494
lfemur -62.8709 7.90069 -16.5968
ltibia 105.646
lfoot 17.865 -13.8046
ltoes -71.0997
480
root -2.11116 8.8412 2.12451 -109.276 -4.89208 -192.301
lowerback 19.4545 -0.96044 -2.75111
upperback 6.70543 -2.64595 -1.16344
thorax -3.5891 -1.61764 0.925321
lowerneck 5.04153 -2.9736 -2.05876
upperneck -31.5921 -3.44159 11.0045
head -10.6796 -3.9223 4.98295
rclavicle 2.94201e-014 -2.03754e-015
rhumerus 53.9929 -7.71954 -73.7777
rradius 45.9902
rwrist 29.9793
rhand -41.8768 0.202652
rfingers 7.12502
rthumb -14.7765 -29.2506
lclavicle 2.94201e-014 -2.03754e-015
lhumerus 27.7128 -23.5227 75.2747
lradius 42.2078
lwrist -37.4194
lhand -67.9571 -44.1786
lfingers 7.12502
lthumb -39.6887 -18.8594
rfemur -60.9001 -3.57383 22.1605
rtibia 103.226
rfoot 156.272 -168.738
rtoes 14.4483
lfemur -67.4967 7.63078 -16.2005
ltibia 109.161
lfoot 16.7448 -14.6025
ltoes -71.4922
